PathFileType	4	(X/Y/Z)	15_coords_data.trc
DataRate	CameraRate	NumFrames	NumMarkers	Units	OrigDataRate	OrigDataStartFrame	OrigNumFrames
30.0	30.0	7	21	m	30.0	49	68
Frame#	Time	THUMB_TIP	THUMB_IP	THUMB_MCP	THUMB_CMC	INDEX_TIP	INDEX_DIP	INDEX_PIP	INDEX_MCP	MIDDLE_TIP	MIDDLE_DIP	MIDDLE_PIP	MIDDLE_MCP	RING_TIP	RING_DIP	RING_PIP	RING_MCP	PINKY_TIP	PINKY_DIP	PINKY_PIP	PINKY_MCP	WRIST
X1	Y1	Z1	X2	Y2	Z2	X3	Y3	Z3	X4	Y4	Z4	X5	Y5	Z5	X6	Y6	Z6	X7	Y7	Z7	X8	Y8	Z8	X9	Y9	Z9	X10	Y10	Z10	X11	Y11	Z11	X12	Y12	Z12	X13	Y13	Z13	X14	Y14	Z14	X15	Y15	Z15	X16	Y16	Z16	X17	Y17	Z17	X18	Y18	Z18	X19	Y19	Z19	X20	Y20	Z20	X21	Y21	Z21
47	1.599999999999993	0.45976541002879934	0.058643391574536574	-0.14136294620425147	0.46139835683484764	0.03940011953506395	-0.1289118432031728	0.45153850383865335	0.01846673574729163	-0.10809366023521733	0.4605256132204242	-0.014342214266054198	-0.07923721097371156	0.5491171941356651	0.08473862714270264	-0.14700532697866234	0.5364362887836778	0.07595184426002477	-0.13751917464873337	0.5195058689253181	0.06268365152519007	-0.12450665075938189	0.4935690936585305	0.03532740010261415	-0.10469364263681316	0.584248620159315	0.06918434366144754	-0.1308449198629525	0.5698641222873391	0.06183534603771612	-0.12265477609757777	0.5467643170887614	0.05005506590972442	-0.10934938057945004	0.5124770274007464	0.027274049396970645	-0.09198404230184135	0.5900514147973428	0.04023315213895673	-0.12977499935632972	0.5771717353839518	0.03540270135129786	-0.11812250591516946	0.5586366370104028	0.028143623348671598	-0.10315801815799419	0.5259500930242518	0.011741281956056282	-0.08591638618530911	0.5913393881577035	-0.0173232655183585	-0.11869038047339442	0.5781282687335247	-0.015149693419113985	-0.1080253953402838	0.5612191763144458	-0.012194941757049271	-0.09593556262106989	0.5295309182913555	-0.008792612878889106	-0.0790488248465058	0.4622830810018608	-0.023011742144276925	-0.051989820119430985
48	1.6333333333333262	0.4584492000748288	0.059708078784995844	-0.1402547286513122	0.4604516397627155	0.04022987867853567	-0.1282301722807398	0.4510386048884588	0.01889934441141894	-0.1076092343210982	0.46038300460176285	-0.01417686262363893	-0.07917445417121846	0.5489663684303855	0.08484711199398964	-0.14697865858849782	0.5362958869149043	0.0761273714491506	-0.13741701526757544	0.5193818841747349	0.06292985646765203	-0.12431159873017911	0.49345910215523714	0.03555468525371808	-0.10450641083969411	0.5842471735862423	0.06831291478571255	-0.13160609342066804	0.5699097843894478	0.061301009271606643	-0.1230461604722807	0.5468234711000819	0.049964240250534586	-0.10933815708491193	0.512452673774354	0.02738010705153404	-0.09188097690472427	0.5898467473689954	0.03928095254809583	-0.13053393818720654	0.5771023343787839	0.03475196366368083	-0.11861470175110139	0.5586845405830214	0.02785548470551391	-0.10333715519819137	0.5258982300038153	0.01174232442819334	-0.08601246938628637	0.590334167755659	-0.018719991984825657	-0.12014262949426535	0.5773385363123407	-0.016304342536017313	-0.10926705129676664	0.560698320322155	-0.012998459760239278	-0.09689828539742223	0.5294120600187506	-0.008938519080316287	-0.07941771764625549	0.4622830810018609	-0.023011742144276925	-0.05198982011943096
49	1.6666666666666594	0.4574203338062385	0.060517232485057026	-0.13939186662863234	0.45970542908671097	0.040875904514948824	-0.12768731302203074	0.45063238064795463	0.019268116888866205	-0.10720309212071022	0.4602697258646985	-0.01401918373421418	-0.07911453227151236	0.5488934542245507	0.08476197489165083	-0.14706869579273835	0.5362412082416376	0.07620235131122632	-0.13733969195116763	0.5193366228013098	0.06315784462571528	-0.12406996439472123	0.4933835144122416	0.03581553723930375	-0.1042590965254866	0.5842474401288653	0.06729451043517953	-0.1324416430390219	0.5699714741168778	0.060654477208579416	-0.12349140543467735	0.5469155773356031	0.04983127439005597	-0.10932477371219942	0.5124462173306297	0.027522250936233394	-0.09170891113370663	0.5895785255606946	0.038197755125336186	-0.13137486551182825	0.5770058976264436	0.034023947928731535	-0.11914750437736968	0.558742595605019	0.027550477563953346	-0.10350378488005801	0.5258739989882459	0.011770347496059319	-0.0860291265004442	0.5892239856411077	-0.0201146308322524	-0.12160794416137607	0.5764834628443862	-0.017436260109716994	-0.11049464540993045	0.5601591522754991	-0.013770920228866501	-0.09781023817078977	0.5293246069123262	-0.009072225882455376	-0.07969845927733338	0.462283081001861	-0.023011742144276925	-0.05198982011943096
50	1.6999999999999926	0.4566492866218639	0.06096967605404813	-0.13888844150489593	0.459124864734731	0.04123239205751361	-0.127385783836025	0.4502920430030275	0.019489689064960736	-0.10693936295525516	0.46018916930956266	-0.013905979692094061	-0.07907063138846931	0.5489271967719677	0.0844011487601738	-0.14730370441537027	0.5362872294601907	0.07609133115654876	-0.13734488130459593	0.5193609009798388	0.06331590877060145	-0.12384311030832054	0.49333813722326203	0.03603838411867777	-0.10403431152260173	0.5842521959341765	0.06637167216187423	-0.13312899561069097	0.5700411901215512	0.06007478142786449	-0.1238340248803729	0.5470217996096565	0.049718683752747905	-0.10926458935924371	0.5124591275650311	0.02765600686479608	-0.09152176233890913	0.5893642856411406	0.03718998171231225	-0.13202095140646697	0.5769550398812107	0.03336682098541799	-0.11951519026505708	0.5588364984217468	0.027298176969630772	-0.1035442793896143	0.5258716059591302	0.01183123493763516	-0.0859712772810666	0.5882521470607278	-0.021250834594144563	-0.12276073011368638	0.5757471479063258	-0.018343182879717812	-0.1114394864692807	0.5597096146108158	-0.014376114491782999	-0.0984829470701642	0.5292740574370294	-0.009135981267840543	-0.07985229183969744	0.4622830810018608	-0.023011742144276925	-0.051989820119430985
51	1.7333333333333258	0.4562203413499034	0.06111949152407703	-0.13875772740312736	0.45877863990117373	0.04136300220599354	-0.12730625420763755	0.4500957222351547	0.019600790243978095	-0.10681642572310782	0.46015060755785775	-0.013824795384633215	-0.07904018575921662	0.5489976160138261	0.08385168375316454	-0.1476601189656199	0.5363799777743874	0.07587381604151255	-0.13740590851166343	0.5194308885606587	0.06343448582577838	-0.12362181363354419	0.4933136132434698	0.03625695820421204	-0.10379995659679911	0.5842097242442258	0.06565565059482703	-0.1336544207003983	0.5700730205543801	0.05965741946671932	-0.12405364822526363	0.5471019404907729	0.04969359635971593	-0.10913851296594759	0.5124703779552561	0.02782180933308087	-0.09129396955318092	0.5891281029459379	0.036449288523380474	-0.1324843108153749	0.5768816646559889	0.03292895350396208	-0.11973158598647932	0.5589070826818213	0.02720522722709906	-0.10347325460341655	0.525885170122969	0.011956919180391656	-0.0858164364679701	0.5874772497980258	-0.021898591218794228	-0.12358875028884675	0.575184465634794	-0.018822500731181302	-0.11208113868485994	0.5593842352447777	-0.01465416806841291	-0.09889820496603605	0.5292689598982219	-0.009095309980562183	-0.07984426210477327	0.4622830810018608	-0.023011742144276925	-0.051989820119430985
52	1.7666666666666588	0.45613414254949913	0.060929426032198086	-0.1390135991621837	0.4586892926261229	0.04124334221885129	-0.12744081591095963	0.4500156623840854	0.019582509170985585	-0.10683993121886681	0.4601497062678025	-0.01378954822270384	-0.07902811826330425	0.5491113928334509	0.08298030307218185	-0.14822323566000323	0.5365254484910552	0.07543679071770604	-0.1376077080533324	0.5195435402061618	0.06346838178051672	-0.12345207979049377	0.4932873490722194	0.03646026711366934	-0.10358224679471062	0.5841216329927612	0.06499248396371127	-0.13417151112252726	0.5700606747321364	0.05926890234571214	-0.12429577994680835	0.5471419646057758	0.04968230102570992	-0.109056378670013	0.5124673974271099	0.028015125837311916	-0.09104649717880209	0.5888578102097056	0.03592067124148257	-0.1328549132849062	0.5767622723029925	0.03265895908078087	-0.11989114853356958	0.5589309709278029	0.027222012560117914	-0.1033785992816032	0.5259014160152646	0.012148534083379126	-0.08558647791030763	0.5869239123343322	-0.02212571559010923	-0.12408943680265133	0.5748116370416976	-0.01893860221164123	-0.1124217422768154	0.559193630060545	-0.014652271050863419	-0.09906070780650522	0.5293017983965276	-0.008959845574768477	-0.0796968718495169	0.4622830810018609	-0.023011742144276925	-0.051989820119430985
53	1.7999999999999918	0.456516258054653	0.06051682470436781	-0.1395238164846203	0.45894453987023043	0.040951897356304445	-0.12772055145797864	0.45013365571517205	0.019478915916624984	-0.10698171377364052	0.46022448886659106	-0.013793652802478462	-0.07903531405663283	0.5493309996139335	0.08178244680280711	-0.1489328145515101	0.536786014574142	0.07477643988145599	-0.1379083319165115	0.5197653961002503	0.06337518401450892	-0.12333713620639147	0.4933196203572402	0.03661270869562083	-0.10338652332968168	0.5840443836282763	0.064442047210294	-0.13461110240587817	0.57004695561467	0.05892258378184945	-0.12453104623212735	0.5471836594602539	0.04964057777995179	-0.10902222282297733	0.5124904421122808	0.028167364594293032	-0.0908170118511279	0.5886105759708824	0.03564592957934032	-0.13309270141475743	0.5766323787799544	0.03255908344628178	-0.11997804652009583	0.5589221685730955	0.027314591933765286	-0.10327404274243773	0.5259361879725611	0.012341291178859737	-0.08531725621688366	0.5866289786501978	-0.021948682904217254	-0.12426299834525836	0.5746508217325093	-0.018717050567573446	-0.11246976684172266	0.5591517951035694	-0.014403697169850904	-0.09897950461218208	0.5293711225103112	-0.008766571723285543	-0.07942911311756376	0.4622830810018609	-0.023011742144276925	-0.05198982011943096
